<svg data-name="Layer 1" xmlns="http://www.w3.org/2000/svg" viewBox="0 0 649.04 144"><path d="M137.46 23.65h14.11c20.9 0 38.26 11 38.26 33.74 0 23.25-17 34.47-38.53 34.47h-13.84zM146 84.08h3c17.36 0 32.38-6.51 32.38-26.32s-15-26.33-32.38-26.33h-3zm52.33-60.43h36.63v7.78h-28.13v19.09h27.32v7.78h-27.32v25.78h28.13v7.78h-36.63V23.65zm87.55 68.21h-10.31L255.49 63H252v28.86h-8.5V23.65h10.31c6.06 0 12.57.09 18 3.17a18.88 18.88 0 0 1 9 16.28c0 9.77-6.51 17.91-16.37 19.09zM252 56h2.71c8.69 0 18.09-1.63 18.09-12.49 0-10.67-10.13-12.21-18.54-12.21H252zm59.29-9.19h-.18l-7.96 45.05h-8.77l13.93-71.1 23.42 53.73 23.43-53.73 13.93 71.1h-8.77l-7.96-45.05h-.18l-20.45 46.5-20.44-46.5zm82.76 27.32l20.26-50.48h9.32l-29.58 71.82-29.67-71.82h9.31l20.36 50.48zm38.07-50.48h36.63v7.78h-28.13v19.09h27.32v7.78h-27.32v25.78h28.13v7.78h-36.63V23.65zm45.13 0h14.13c20.9 0 38.26 11 38.26 33.74 0 23.25-17 34.47-38.53 34.47h-13.86zm8.5 60.43h3c17.36 0 32.38-6.51 32.38-26.32s-15-26.33-32.38-26.33h-3zm58.34-9.32l-7.78 17.1h-9.14l32.56-71.1 32.57 71.1h-9.14l-7.78-17.1zm15.64-35.37L547.61 67h24.25zM88.57 42.28c-4.76-10.17-9.31-18.79-9.31-18.79s-4.56 8.62-9.32 18.79H47.22v13.28c0 6.52.58 11.55 1.79 15.07a29.4 29.4 0 0 0 6.37 10.9c5.86 6.66 13.48 10.07 22.9 10.31h2c9.35-.2 16.93-3.52 22.76-9.9a28.31 28.31 0 0 0 6.34-11c1.27-3.72 1.89-8.83 1.89-15.27V42.28zm-9.31 41.91a5.75 5.75 0 0 1-.83 0h-.21A12.21 12.21 0 0 1 67.08 72v-.28c.1-1.31.86-5.59 5.58-16.76.66-1.52 1.38-3.14 2.17-5 .63-1.35 1.28-2.83 2-4.45.52-1.11 1-2.18 1.52-3.25.27-.58.55-1.13.83-1.69.27.56.55 1.11.82 1.69.49 1.07 1 2.14 1.52 3.25.69 1.51 1.38 3 2 4.45.76 1.68 1.49 3.34 2.18 5 4.87 11.27 5.68 15.51 5.73 16.82V72a12.12 12.12 0 0 1-11.31 12.15H80a4.7 4.7 0 0 1-.75 0m-23-16c-.62-1.86-1.38-5.58-1.38-12.62V50H66.5c-.32.68-.59 1.34-.87 2-3.2 7.58-5.83 14.86-6.17 19.14a8.08 8.08 0 0 0-.08.86 21.84 21.84 0 0 0 .17 2.55 22.66 22.66 0 0 1-3.31-6.38m47.39-12.44c0 7-.83 10.79-1.49 12.82v.18A20.17 20.17 0 0 1 98.88 75a16 16 0 0 0 .24-2.93v-.79c-.35-4.28-3-11.59-6.21-19.24-.28-.66-.55-1.32-.87-2h11.63z" fill="#10ac84"/><path fill="none" d="M7 0h642.04v144H7z"/><path d="M152 126.63a12.9 12.9 0 0 1-4.13-.67 10.19 10.19 0 0 1-3.46-1.92l1.6-2.69a13.66 13.66 0 0 0 3 1.65 8.06 8.06 0 0 0 2.89.56 3.66 3.66 0 0 0 2-.48 1.55 1.55 0 0 0 .73-1.38 1.36 1.36 0 0 0-.86-1.31 18 18 0 0 0-2.82-1c-1.08-.3-2-.59-2.78-.86a7.3 7.3 0 0 1-1.86-.95 3.21 3.21 0 0 1-1-1.21 4 4 0 0 1-.32-1.65 5.26 5.26 0 0 1 .5-2.31 5 5 0 0 1 1.39-1.74 6.32 6.32 0 0 1 2.09-1.1 8.4 8.4 0 0 1 2.61-.39 11 11 0 0 1 3.54.55 8.58 8.58 0 0 1 3 1.76l-1.73 2.59a10 10 0 0 0-2.48-1.41 6.73 6.73 0 0 0-2.38-.45 3.41 3.41 0 0 0-1.82.45 1.57 1.57 0 0 0-.74 1.44 1.4 1.4 0 0 0 .18.74 1.48 1.48 0 0 0 .56.51 5.42 5.42 0 0 0 1 .43c.42.14.94.28 1.56.43 1.15.3 2.13.6 3 .9a8.17 8.17 0 0 1 2 1 3.68 3.68 0 0 1 1.15 1.33 4 4 0 0 1 .37 1.81 4.69 4.69 0 0 1-1.82 3.89 7.86 7.86 0 0 1-4.97 1.48zm24.25-.32l-4.86-7.26-2.31 2.27v5h-4.28V103h4.28v14.18l6.72-7.56h4.58l-6.24 7.11 6.69 9.63zm9.6-19.1V103h4.29v4.26zm0 19.1v-16.77h4.29v16.77zm26.95 0h-4.29v-9.41a4.89 4.89 0 0 0-.71-2.94 2.31 2.31 0 0 0-2-.93 3.68 3.68 0 0 0-1.31.26 4.67 4.67 0 0 0-1.26.72 5.64 5.64 0 0 0-1.08 1.1 4.43 4.43 0 0 0-.7 1.41v9.79h-4.29v-16.77h3.87v3.11a6.39 6.39 0 0 1 2.69-2.5 8.59 8.59 0 0 1 4-.9 5.1 5.1 0 0 1 2.56.58 4.26 4.26 0 0 1 1.54 1.5 6.43 6.43 0 0 1 .75 2.12 13.73 13.73 0 0 1 .21 2.4zm16.76-8.38a9.2 9.2 0 0 1 .61-3.33 8.1 8.1 0 0 1 1.76-2.75 8.66 8.66 0 0 1 2.78-1.89 9.23 9.23 0 0 1 3.69-.71 8.8 8.8 0 0 1 4.68 1.19 7.57 7.57 0 0 1 2.9 3.1l-4.19 1.28a3.84 3.84 0 0 0-1.44-1.42 4.22 4.22 0 0 0-3.72-.13 4.5 4.5 0 0 0-1.39 1 5 5 0 0 0-.93 1.59 6.08 6.08 0 0 0-.33 2.05 5.78 5.78 0 0 0 .35 2 5.24 5.24 0 0 0 .94 1.6 4.07 4.07 0 0 0 1.4 1 3.93 3.93 0 0 0 1.69.37 4.15 4.15 0 0 0 2.13-.57 3.27 3.27 0 0 0 1.36-1.41l4.19 1.28a7 7 0 0 1-2.85 3.13 8.85 8.85 0 0 1-4.76 1.22 9.15 9.15 0 0 1-3.68-.7A8.49 8.49 0 0 1 232 124a8.35 8.35 0 0 1-1.77-2.78 8.89 8.89 0 0 1-.67-3.29zm26.88 8.7a6.3 6.3 0 0 1-2.27-.4 5.52 5.52 0 0 1-1.82-1.12 5 5 0 0 1-1.2-1.68 5 5 0 0 1-.44-2.11 4.66 4.66 0 0 1 .53-2.19 5.06 5.06 0 0 1 1.47-1.72 7.44 7.44 0 0 1 2.26-1.1 9.78 9.78 0 0 1 2.88-.4 12.14 12.14 0 0 1 2.19.19 8.79 8.79 0 0 1 1.91.55v-1a3.35 3.35 0 0 0-.95-2.56 3.91 3.91 0 0 0-2.8-.9 7.41 7.41 0 0 0-2.62.48 12.06 12.06 0 0 0-2.62 1.41l-1.32-2.72a12.4 12.4 0 0 1 7-2.15 8.22 8.22 0 0 1 5.62 1.78 6.52 6.52 0 0 1 2 5.14v5.21a1.57 1.57 0 0 0 .23 1 1.07 1.07 0 0 0 .79.32v3.65a9.54 9.54 0 0 1-1.89.22 2.87 2.87 0 0 1-1.87-.54 2.33 2.33 0 0 1-.82-1.44l-.09-.93a7.5 7.5 0 0 1-2.72 2.24 7.86 7.86 0 0 1-3.45.77zm1.22-3.14a5.5 5.5 0 0 0 2.06-.38 3.83 3.83 0 0 0 1.52-1 1.56 1.56 0 0 0 .71-1.22V119a10.18 10.18 0 0 0-1.67-.46 8.69 8.69 0 0 0-1.73-.18 4.62 4.62 0 0 0-2.72.75 2.27 2.27 0 0 0-1.05 1.91 2.3 2.3 0 0 0 .83 1.8 3 3 0 0 0 2.05.67zm24.51-10.24a8.56 8.56 0 0 0-3.49.76 4.39 4.39 0 0 0-2.21 2.16v10.14h-4.29v-16.77h3.94v3.59a7.89 7.89 0 0 1 1.05-1.56 9.3 9.3 0 0 1 1.32-1.2 6.05 6.05 0 0 1 1.42-.78 3.94 3.94 0 0 1 1.39-.27h.53a1.87 1.87 0 0 1 .34 0zm12.13 13.38a9.28 9.28 0 0 1-3.65-.69 8.25 8.25 0 0 1-2.78-1.87 8.41 8.41 0 0 1-1.78-2.75 8.8 8.8 0 0 1-.62-3.3 9.41 9.41 0 0 1 .6-3.37 8.17 8.17 0 0 1 4.56-4.69 9.32 9.32 0 0 1 3.7-.71 9.05 9.05 0 0 1 3.67.75 8.47 8.47 0 0 1 2.76 1.89 8 8 0 0 1 1.72 2.75 9 9 0 0 1 .6 3.26v.8a3.36 3.36 0 0 1-.08.64h-13a4.81 4.81 0 0 0 .48 1.76 4.35 4.35 0 0 0 2.37 2.15 4.53 4.53 0 0 0 1.6.28 4.86 4.86 0 0 0 2.41-.62 3.35 3.35 0 0 0 1.56-1.65l3.68 1a7.51 7.51 0 0 1-3 3.15 9.22 9.22 0 0 1-4.8 1.22zm4.35-10.11a4.49 4.49 0 0 0-1.39-3 4.37 4.37 0 0 0-5.94 0 4.34 4.34 0 0 0-.94 1.31 4.49 4.49 0 0 0-.43 1.7zm28.9 10.11a9.28 9.28 0 0 1-3.65-.69 8.17 8.17 0 0 1-4.56-4.62 8.8 8.8 0 0 1-.63-3.3 9.42 9.42 0 0 1 .61-3.37 8.27 8.27 0 0 1 1.76-2.79 8.41 8.41 0 0 1 2.8-1.9 9.32 9.32 0 0 1 3.7-.71 9.09 9.09 0 0 1 3.66.71 8.32 8.32 0 0 1 2.75 1.89 7.88 7.88 0 0 1 1.73 2.75 9 9 0 0 1 .59 3.26v.8a3.36 3.36 0 0 1-.08.64h-13a4.81 4.81 0 0 0 .48 1.76 4.16 4.16 0 0 0 1 1.31 4.23 4.23 0 0 0 1.38.84 4.53 4.53 0 0 0 1.6.28 4.89 4.89 0 0 0 2.41-.62 3.29 3.29 0 0 0 1.55-1.65l3.68 1a7.44 7.44 0 0 1-3 3.15 9.16 9.16 0 0 1-4.78 1.26zm4.35-10.11a4.49 4.49 0 0 0-1.39-3 4.52 4.52 0 0 0-4.61-.83 4.2 4.2 0 0 0-1.33.85 4.34 4.34 0 0 0-.94 1.31 4.69 4.69 0 0 0-.44 1.7zm17.18 10.11a7.55 7.55 0 0 1-5.73-2.53 8.62 8.62 0 0 1-1.64-2.77 9.5 9.5 0 0 1-.6-3.4 10.15 10.15 0 0 1 .56-3.4 8.94 8.94 0 0 1 1.56-2.75 7.06 7.06 0 0 1 2.36-1.85 6.75 6.75 0 0 1 3-.68 6.37 6.37 0 0 1 3.35.9 6.58 6.58 0 0 1 2.32 2.34V103h4.28v18.43a1.57 1.57 0 0 0 .23 1 1 1 0 0 0 .77.32v3.65a9.68 9.68 0 0 1-1.83.22 3 3 0 0 1-1.89-.57 2.16 2.16 0 0 1-.83-1.51l-.09-1a6 6 0 0 1-2.52 2.41 7.05 7.05 0 0 1-3.3.68zm1.12-3.63a4.37 4.37 0 0 0 2.43-.8 4.87 4.87 0 0 0 1-.89 3.88 3.88 0 0 0 .66-1.12v-4a5 5 0 0 0-1.78-2.32 5.49 5.49 0 0 0-1.25-.69 3.58 3.58 0 0 0-1.29-.26 3.83 3.83 0 0 0-1.78.42 4.22 4.22 0 0 0-1.39 1.13 5.27 5.27 0 0 0-.9 1.65 6 6 0 0 0-.32 1.92 5.18 5.18 0 0 0 1.31 3.52 4.43 4.43 0 0 0 1.46 1.06 4.56 4.56 0 0 0 1.85.38zm20.9 3.63a4.77 4.77 0 0 1-3.94-1.66 7.77 7.77 0 0 1-1.34-4.93v-10.5h4.29v9.57c0 2.58.92 3.87 2.78 3.87a4.38 4.38 0 0 0 2.41-.75 5.36 5.36 0 0 0 1.91-2.29v-10.4h4.29v11.84a1.5 1.5 0 0 0 .24 1 1 1 0 0 0 .78.32v3.65a8 8 0 0 1-1.07.16h-.78a3.06 3.06 0 0 1-1.88-.53 2 2 0 0 1-.84-1.45l-.1-1.35a7.18 7.18 0 0 1-2.88 2.6 8.75 8.75 0 0 1-3.87.85zm16.8-8.7a9 9 0 0 1 .61-3.33 8 8 0 0 1 1.76-2.75 8.45 8.45 0 0 1 2.78-1.89 9.18 9.18 0 0 1 3.68-.71 8.83 8.83 0 0 1 4.69 1.19 7.55 7.55 0 0 1 2.89 3.1l-4.19 1.28a3.71 3.71 0 0 0-1.44-1.42 4.2 4.2 0 0 0-3.71-.13 4.39 4.39 0 0 0-1.39 1 4.64 4.64 0 0 0-.93 1.59 6.08 6.08 0 0 0-.34 2.05 5.57 5.57 0 0 0 .36 2 4.87 4.87 0 0 0 .94 1.6 4 4 0 0 0 1.39 1 4 4 0 0 0 1.7.37 4.17 4.17 0 0 0 2.13-.57 3.33 3.33 0 0 0 1.36-1.41l4.19 1.28a7.07 7.07 0 0 1-2.85 3.13 8.86 8.86 0 0 1-4.77 1.22 9.22 9.22 0 0 1-3.68-.7 8.45 8.45 0 0 1-2.78-1.83 8.54 8.54 0 0 1-1.78-2.78 9.09 9.09 0 0 1-.62-3.29zm26.1 8.7a6.27 6.27 0 0 1-2.27-.4 5.46 5.46 0 0 1-1.83-1.12 5.27 5.27 0 0 1-1.2-1.68 5 5 0 0 1-.43-2.11 4.66 4.66 0 0 1 .53-2.19 5 5 0 0 1 1.47-1.72 7.32 7.32 0 0 1 2.26-1.1 9.69 9.69 0 0 1 2.88-.4 12.3 12.3 0 0 1 2.19.19 8.7 8.7 0 0 1 1.9.55v-1a3.35 3.35 0 0 0-.94-2.56 3.91 3.91 0 0 0-2.8-.9 7.46 7.46 0 0 0-2.63.48 12.29 12.29 0 0 0-2.62 1.41l-1.31-2.72a12.37 12.37 0 0 1 7-2.15 8.2 8.2 0 0 1 5.62 1.78 6.52 6.52 0 0 1 2 5.14v5.21a1.5 1.5 0 0 0 .24 1 1 1 0 0 0 .78.32v3.65a9.37 9.37 0 0 1-1.88.22 2.9 2.9 0 0 1-1.88-.54 2.32 2.32 0 0 1-.81-1.44l-.1-.93a7.41 7.41 0 0 1-2.72 2.24 7.85 7.85 0 0 1-3.45.77zm1.21-3.14a5.51 5.51 0 0 0 2.07-.38 3.91 3.91 0 0 0 1.52-1 1.55 1.55 0 0 0 .7-1.22V119a10.06 10.06 0 0 0-1.66-.46 8.85 8.85 0 0 0-1.73-.18 4.58 4.58 0 0 0-2.72.75 2.3 2.3 0 0 0-.22 3.71 3 3 0 0 0 2.08.67zm25.42 1.96a19.68 19.68 0 0 1-2.11.76 8.76 8.76 0 0 1-2.63.39 6.14 6.14 0 0 1-1.68-.23 3.53 3.53 0 0 1-1.37-.72 3.46 3.46 0 0 1-.95-1.28 4.67 4.67 0 0 1-.35-1.9v-9.63h-2.21v-3.3h2.21v-5.44h4.29v5.44h3.52v3.3h-3.52V121a1.5 1.5 0 0 0 .46 1.26 1.75 1.75 0 0 0 1.14.37 3.88 3.88 0 0 0 1.31-.22c.43-.15.77-.28 1-.39zm5.44-18.24V103h4.29v4.26zm0 19.1v-16.77h4.29v16.77zm19.1.32a9.22 9.22 0 0 1-3.68-.7 8.26 8.26 0 0 1-2.76-1.91 8.41 8.41 0 0 1-1.75-2.77 9.11 9.11 0 0 1-.61-3.29 9.24 9.24 0 0 1 .61-3.33 8.52 8.52 0 0 1 1.75-2.77 8.24 8.24 0 0 1 2.76-1.9 9.22 9.22 0 0 1 3.68-.71 9.1 9.1 0 0 1 3.67.71 8.21 8.21 0 0 1 4.49 4.67 9 9 0 0 1 .61 3.33 8.9 8.9 0 0 1-.61 3.29 8.5 8.5 0 0 1-1.72 2.77 8.16 8.16 0 0 1-2.76 1.91 9.15 9.15 0 0 1-3.68.7zm-4.38-8.63a6 6 0 0 0 .33 2 5 5 0 0 0 .93 1.58 4.07 4.07 0 0 0 1.4 1 4 4 0 0 0 1.72.37 4.09 4.09 0 0 0 3.12-1.41 4.68 4.68 0 0 0 .93-1.6 6.23 6.23 0 0 0 0-4.06 4.78 4.78 0 0 0-.93-1.6 4.16 4.16 0 0 0-1.39-1 4 4 0 0 0-1.73-.37 3.84 3.84 0 0 0-1.72.39 4.23 4.23 0 0 0-1.4 1 5.14 5.14 0 0 0-.93 1.6 6 6 0 0 0-.33 2.1zm34.82 8.31h-4.29v-9.41a4.89 4.89 0 0 0-.71-2.94 2.31 2.31 0 0 0-1.95-.93 3.68 3.68 0 0 0-1.31.26 4.88 4.88 0 0 0-1.27.72 5.89 5.89 0 0 0-1.07 1.1 4.43 4.43 0 0 0-.7 1.41v9.79H480v-16.77h3.87v3.11a6.39 6.39 0 0 1 2.69-2.5 8.59 8.59 0 0 1 4-.9 5.1 5.1 0 0 1 2.56.58 4.26 4.26 0 0 1 1.54 1.5 6.43 6.43 0 0 1 .75 2.12 13.73 13.73 0 0 1 .21 2.4z" style="isolation:isolate" fill="#717171"/><path fill="#717171" d="M47.22 115.26h87.24v3.6H47.22zm458.5 0h87.24v3.6h-87.24z"/></svg>